<svg width="64" height="64" viewBox="0 0 64 64" fill="none" xmlns="http://www.w3.org/2000/svg">
<g clip-path="url(#clip0_1469_2014)">
<path d="M51.5 0H12.5C5.59644 0 0 5.59644 0 12.5V51.5C0 58.4036 5.59644 64 12.5 64H51.5C58.4036 64 64 58.4036 64 51.5V12.5C64 5.59644 58.4036 0 51.5 0Z" fill="#68D4BE"/>
<path d="M48.709 15.291C44.2461 10.8281 38.3086 8.36719 32 8.36719C25.6914 8.36719 19.7539 10.8281 15.291 15.291C10.8281 19.7539 8.36719 25.6914 8.36719 32C8.36719 38.3086 10.8281 44.2461 15.291 48.709C19.7539 53.1719 25.6914 55.6328 32 55.6328C38.3086 55.6328 44.2461 53.1719 48.709 48.709C53.1719 44.2461 55.6328 38.3086 55.6328 32C55.6328 25.6914 53.1719 19.7539 48.709 15.291ZM15.5645 48.4355C11.1797 44.041 8.75781 38.211 8.75781 32C8.75781 25.789 11.1797 19.959 15.5645 15.5645C18.8164 12.3125 22.8594 10.1445 27.2539 9.23633C24.3926 10.3203 21.7656 12.3809 19.6074 15.3105C16.3164 19.7735 14.5 25.7011 14.5 32C14.5 38.2989 16.3164 44.2265 19.6074 48.6895C21.7656 51.6094 24.3926 53.6798 27.2539 54.7636C22.8594 53.8555 18.8164 51.6875 15.5645 48.4355ZM14.8906 32C14.8906 20.0566 21.5605 10.1836 30.1055 8.9043C28.4355 9.85156 26.9121 12.0684 25.7011 15.3594C24.0605 19.8028 23.1524 25.7207 23.1524 32C23.1524 38.2793 24.0605 44.1972 25.7011 48.6406C26.9121 51.9316 28.4355 54.1485 30.1055 55.0957C21.5605 53.8164 14.8906 43.9434 14.8906 32ZM31.8048 55.2422C29.6563 55.1055 27.625 52.7324 26.0625 48.5136C24.4316 44.1094 23.543 38.25 23.543 32.0098C23.543 25.7695 24.4414 19.9101 26.0625 15.5059C27.625 11.2773 29.6563 8.9043 31.8048 8.76758V55.2422Z" fill="#111111"/>
</g>
<defs>
<clipPath id="clip0_1469_2014">
<rect width="64" height="64" fill="white"/>
</clipPath>
</defs>
</svg>
